<svg width="52" height="20" viewBox="0 0 52 20" fill="none" xmlns="http://www.w3.org/2000/svg">
<path d="M38.0982 16.0408C38.0011 15.9436 37.9282 15.8283 37.8797 15.6947C37.8432 15.5612 37.7461 15.4519 37.5883 15.3669C37.564 15.1847 37.5275 14.9783 37.479 14.7476C37.4425 14.5048 37.4 14.2619 37.3515 14.0191C37.3151 13.7641 37.2847 13.5152 37.2604 13.2723C37.2483 13.0174 37.2604 12.7866 37.2968 12.5802C37.3211 12.471 37.3575 12.3677 37.4061 12.2706C37.4668 12.1735 37.5215 12.0824 37.57 11.9974C37.6308 11.9003 37.6732 11.8031 37.6975 11.706C37.734 11.6089 37.74 11.5117 37.7157 11.4146C37.7886 11.4024 37.8311 11.366 37.8432 11.3053C37.8675 11.2324 37.9282 11.2082 38.0254 11.2324C38.1104 10.9653 38.2014 10.7164 38.2986 10.4857C38.3957 10.255 38.4989 10.0304 38.6082 9.8118C38.7175 9.59324 38.8268 9.37468 38.936 9.15612C39.0575 8.92541 39.1667 8.67043 39.2639 8.39115C39.0575 8.19688 38.9057 7.99046 38.8086 7.7719C38.7236 7.5412 38.6568 7.31049 38.6082 7.07979C38.5596 6.84909 38.5232 6.61839 38.4989 6.38768C38.4746 6.14484 38.4261 5.90199 38.3532 5.65915C38.4989 5.44059 38.675 5.26452 38.8814 5.13096C39.0878 4.98525 39.3125 4.8699 39.5553 4.78491C39.8103 4.68777 40.0835 4.61491 40.3749 4.56635C40.6663 4.50563 40.9759 4.43885 41.3038 4.366C41.8866 4.18386 42.4087 4.04423 42.8701 3.94709C43.3315 3.83781 43.7808 3.75281 44.2179 3.6921C44.655 3.61925 45.1104 3.55854 45.5839 3.50997C46.0575 3.44926 46.6039 3.36426 47.2231 3.25498C47.2353 3.29141 47.2535 3.30962 47.2778 3.30962C47.3142 3.30962 47.3567 3.30962 47.4053 3.30962C47.4417 3.39462 47.5085 3.43712 47.6056 3.43712C47.6056 3.40069 47.5995 3.37033 47.5874 3.34605C47.5874 3.30962 47.5874 3.27927 47.5874 3.25498C47.6117 3.25498 47.642 3.26105 47.6785 3.2732C47.727 3.28534 47.7635 3.29748 47.7877 3.30962C47.8242 3.32176 47.8545 3.32176 47.8788 3.30962C47.9031 3.28534 47.9092 3.24284 47.897 3.18213C48.0427 3.43712 48.2309 3.64961 48.4616 3.8196C48.6923 3.97745 48.9473 4.11708 49.2266 4.2385C49.2387 4.34778 49.2387 4.42671 49.2266 4.47528C49.2266 4.52385 49.2205 4.57242 49.2084 4.62099C49.1962 4.65741 49.1902 4.70598 49.1902 4.76669C49.1902 4.81526 49.2023 4.88811 49.2266 4.98525C49.0323 5.31309 48.8077 5.56808 48.5527 5.75021C48.3099 5.93235 48.0488 6.07198 47.7695 6.16912C47.4903 6.26626 47.1928 6.33911 46.8771 6.38768C46.5735 6.43625 46.2578 6.49089 45.93 6.5516C45.6143 6.60017 45.2925 6.67303 44.9647 6.77016C44.6368 6.8673 44.3151 7.01301 43.9994 7.20728C43.9022 7.17086 43.8112 7.15872 43.7262 7.17086C43.6533 7.17086 43.5744 7.183 43.4894 7.20728C43.4044 7.23157 43.3073 7.25585 43.198 7.28014C43.1008 7.30442 42.9794 7.30442 42.8337 7.28014C42.7366 7.36513 42.6212 7.42584 42.4876 7.46227C42.3662 7.4987 42.2387 7.53513 42.1052 7.57155C42.1659 7.70512 42.1902 7.83868 42.178 7.97225C42.178 8.10581 42.1962 8.22116 42.2327 8.3183C42.7426 8.36687 43.3073 8.36687 43.9265 8.3183C44.5458 8.25759 45.1529 8.21509 45.7478 8.19081C45.76 8.25152 45.7539 8.29402 45.7296 8.3183C45.7053 8.34258 45.6932 8.38508 45.6932 8.44579C45.8025 8.51865 45.9057 8.60971 46.0028 8.71899C46.1 8.82827 46.1971 8.93756 46.2942 9.04684C46.4035 9.14397 46.5128 9.22897 46.6221 9.30182C46.7314 9.36253 46.8589 9.38682 47.0046 9.37468C47.0653 9.4961 47.1078 9.62359 47.1321 9.75716C47.1563 9.89072 47.1381 10.0304 47.0774 10.1761C46.8346 10.3339 46.5978 10.4978 46.3671 10.6678C46.1364 10.8257 45.8936 10.9714 45.6386 11.1049C45.3957 11.2385 45.1286 11.3478 44.8372 11.4328C44.5458 11.5178 44.2301 11.5542 43.8901 11.5421C43.8294 11.5421 43.7747 11.5421 43.7262 11.5421C43.6897 11.5421 43.6412 11.5178 43.5805 11.4692C43.459 11.5299 43.2951 11.5542 43.0887 11.5421C42.8944 11.5178 42.7305 11.536 42.5969 11.5967C42.4269 11.536 42.2266 11.5056 41.9959 11.5056C41.7773 11.5056 41.5831 11.4753 41.4131 11.4146C41.1945 11.7303 40.9881 12.0642 40.7938 12.4163C40.5995 12.7563 40.4295 13.1206 40.2838 13.5091C40.7817 13.582 41.1945 13.6123 41.5223 13.6002C41.8502 13.588 42.1598 13.5638 42.4512 13.5273C42.7426 13.4909 43.0401 13.4545 43.3437 13.418C43.6594 13.3816 44.0419 13.3695 44.4911 13.3816C44.7947 13.2359 45.1407 13.1388 45.5293 13.0902C45.93 13.0295 46.3003 12.9445 46.6403 12.8352C46.7617 12.8716 46.8649 12.9445 46.9499 13.0538C47.0349 13.1509 47.1138 13.2541 47.1867 13.3634C47.2717 13.4605 47.3567 13.5455 47.4417 13.6184C47.5267 13.6912 47.636 13.7155 47.7695 13.6912C47.8302 13.752 47.8667 13.8248 47.8788 13.9098C47.9031 13.9948 47.9213 14.0737 47.9334 14.1466C47.9577 14.2194 47.9881 14.2801 48.0245 14.3287C48.0609 14.3651 48.1277 14.3773 48.2249 14.3651C47.9942 14.8387 47.7331 15.203 47.4417 15.4579C47.1624 15.7129 46.8406 15.9133 46.4764 16.059C46.1243 16.1925 45.7236 16.2958 45.2743 16.3686C44.8372 16.4293 44.3454 16.5082 43.799 16.6054C43.6654 16.6297 43.5501 16.6297 43.453 16.6054C43.368 16.569 43.2769 16.5507 43.1798 16.5507C42.8398 16.6115 42.433 16.6722 41.9595 16.7329C41.4981 16.7936 41.0306 16.8179 40.557 16.8057C40.0835 16.7936 39.6282 16.7329 39.191 16.6236C38.7539 16.5143 38.3896 16.32 38.0982 16.0408Z" fill="white"/>
<path d="M26.4058 16.0408C26.3087 15.9436 26.2359 15.8283 26.1873 15.6947C26.1509 15.5612 26.0537 15.4519 25.8959 15.3669C25.8716 15.1847 25.8352 14.9783 25.7866 14.7476C25.7502 14.5048 25.7077 14.2619 25.6591 14.0191C25.6227 13.7641 25.5923 13.5152 25.568 13.2723C25.5559 13.0174 25.568 12.7866 25.6045 12.5802C25.6287 12.471 25.6652 12.3677 25.7137 12.2706C25.7744 12.1735 25.8291 12.0824 25.8777 11.9974C25.9384 11.9003 25.9809 11.8031 26.0051 11.706C26.0416 11.6089 26.0476 11.5117 26.0234 11.4146C26.0962 11.4024 26.1387 11.366 26.1509 11.3053C26.1751 11.2324 26.2359 11.2082 26.333 11.2324C26.418 10.9653 26.5091 10.7164 26.6062 10.4857C26.7033 10.255 26.8065 10.0304 26.9158 9.8118C27.0251 9.59324 27.1344 9.37468 27.2437 9.15612C27.3651 8.92541 27.4744 8.67043 27.5715 8.39115C27.3651 8.19688 27.2133 7.99046 27.1162 7.7719C27.0312 7.5412 26.9644 7.31049 26.9158 7.07979C26.8672 6.84909 26.8308 6.61839 26.8065 6.38768C26.7823 6.14484 26.7337 5.90199 26.6608 5.65915C26.8065 5.44059 26.9826 5.26452 27.189 5.13096C27.3954 4.98525 27.6201 4.8699 27.8629 4.78491C28.1179 4.68777 28.3911 4.61491 28.6825 4.56635C28.9739 4.50563 29.2836 4.43885 29.6114 4.366C30.1942 4.18386 30.7163 4.04423 31.1777 3.94709C31.6392 3.83781 32.0884 3.75281 32.5255 3.6921C32.9627 3.61925 33.418 3.55854 33.8915 3.50997C34.3651 3.44926 34.9115 3.36426 35.5307 3.25498C35.5429 3.29141 35.5611 3.30962 35.5854 3.30962C35.6218 3.30962 35.6643 3.30962 35.7129 3.30962C35.7493 3.39462 35.8161 3.43712 35.9132 3.43712C35.9132 3.40069 35.9072 3.37033 35.895 3.34605C35.895 3.30962 35.895 3.27927 35.895 3.25498C35.9193 3.25498 35.9497 3.26105 35.9861 3.2732C36.0346 3.28534 36.0711 3.29748 36.0954 3.30962C36.1318 3.32176 36.1621 3.32176 36.1864 3.30962C36.2107 3.28534 36.2168 3.24284 36.2046 3.18213C36.3503 3.43712 36.5386 3.64961 36.7693 3.8196C37 3.97745 37.2549 4.11708 37.5342 4.2385C37.5464 4.34778 37.5464 4.42671 37.5342 4.47528C37.5342 4.52385 37.5281 4.57242 37.516 4.62099C37.5039 4.65741 37.4978 4.70598 37.4978 4.76669C37.4978 4.81526 37.5099 4.88811 37.5342 4.98525C37.3399 5.31309 37.1153 5.56808 36.8603 5.75021C36.6175 5.93235 36.3564 6.07198 36.0771 6.16912C35.7979 6.26626 35.5004 6.33911 35.1847 6.38768C34.8811 6.43625 34.5654 6.49089 34.2376 6.5516C33.9219 6.60017 33.6001 6.67303 33.2723 6.77016C32.9444 6.8673 32.6227 7.01301 32.307 7.20728C32.2098 7.17086 32.1188 7.15872 32.0338 7.17086C31.9609 7.17086 31.882 7.183 31.797 7.20728C31.712 7.23157 31.6149 7.25585 31.5056 7.28014C31.4085 7.30442 31.287 7.30442 31.1413 7.28014C31.0442 7.36513 30.9288 7.42584 30.7953 7.46227C30.6738 7.4987 30.5464 7.53513 30.4128 7.57155C30.4735 7.70512 30.4978 7.83868 30.4856 7.97225C30.4856 8.10581 30.5039 8.22116 30.5403 8.3183C31.0503 8.36687 31.6149 8.36687 32.2341 8.3183C32.8534 8.25759 33.4605 8.21509 34.0555 8.19081C34.0676 8.25152 34.0615 8.29402 34.0372 8.3183C34.013 8.34258 34.0008 8.38508 34.0008 8.44579C34.1101 8.51865 34.2133 8.60971 34.3104 8.71899C34.4076 8.82827 34.5047 8.93756 34.6019 9.04684C34.7111 9.14397 34.8204 9.22897 34.9297 9.30182C35.039 9.36253 35.1665 9.38682 35.3122 9.37468C35.3729 9.4961 35.4154 9.62359 35.4397 9.75716C35.464 9.89072 35.4457 10.0304 35.385 10.1761C35.1422 10.3339 34.9054 10.4978 34.6747 10.6678C34.444 10.8257 34.2012 10.9714 33.9462 11.1049C33.7033 11.2385 33.4362 11.3478 33.1448 11.4328C32.8534 11.5178 32.5377 11.5542 32.1977 11.5421C32.137 11.5421 32.0823 11.5421 32.0338 11.5421C31.9973 11.5421 31.9488 11.5178 31.8881 11.4692C31.7666 11.5299 31.6027 11.5542 31.3963 11.5421C31.202 11.5178 31.0381 11.536 30.9045 11.5967C30.7346 11.536 30.5342 11.5056 30.3035 11.5056C30.0849 11.5056 29.8907 11.4753 29.7207 11.4146C29.5021 11.7303 29.2957 12.0642 29.1014 12.4163C28.9071 12.7563 28.7372 13.1206 28.5914 13.5091C29.0893 13.582 29.5021 13.6123 29.83 13.6002C30.1578 13.588 30.4674 13.5638 30.7588 13.5273C31.0503 13.4909 31.3477 13.4545 31.6513 13.418C31.967 13.3816 32.3495 13.3695 32.7987 13.3816C33.1023 13.2359 33.4483 13.1388 33.8369 13.0902C34.2376 13.0295 34.6079 12.9445 34.9479 12.8352C35.0693 12.8716 35.1725 12.9445 35.2575 13.0538C35.3425 13.1509 35.4215 13.2541 35.4943 13.3634C35.5793 13.4605 35.6643 13.5455 35.7493 13.6184C35.8343 13.6912 35.9436 13.7155 36.0771 13.6912C36.1379 13.752 36.1743 13.8248 36.1864 13.9098C36.2107 13.9948 36.2289 14.0737 36.2411 14.1466C36.2654 14.2194 36.2957 14.2801 36.3321 14.3287C36.3686 14.3651 36.4353 14.3773 36.5325 14.3651C36.3018 14.8387 36.0407 15.203 35.7493 15.4579C35.47 15.7129 35.1483 15.9133 34.784 16.059C34.4319 16.1925 34.0312 16.2958 33.5819 16.3686C33.1448 16.4293 32.653 16.5082 32.1066 16.6054C31.9731 16.6297 31.8577 16.6297 31.7606 16.6054C31.6756 16.569 31.5845 16.5507 31.4874 16.5507C31.1474 16.6115 30.7406 16.6722 30.2671 16.7329C29.8057 16.7936 29.3382 16.8179 28.8647 16.8057C28.3911 16.7936 27.9358 16.7329 27.4986 16.6236C27.0615 16.5143 26.6973 16.32 26.4058 16.0408Z" fill="white"/>
<path d="M13.8386 15.0937C13.7779 15.1058 13.7232 15.0633 13.6747 14.9662C13.6261 14.8569 13.5715 14.7537 13.5107 14.6566H13.7111C13.6261 14.3894 13.6018 14.1466 13.6382 13.928C13.6868 13.6973 13.7414 13.4788 13.8022 13.2723C13.8629 13.0538 13.9114 12.8474 13.9479 12.6531C13.9964 12.4467 13.9782 12.2342 13.8932 12.0156C13.9539 12.052 13.9964 12.0399 14.0207 11.9792C14.0571 11.9063 14.0814 11.8213 14.0936 11.7242C14.1179 11.6149 14.1239 11.5056 14.1118 11.3964C14.1118 11.2749 14.1057 11.1778 14.0936 11.105C14.2514 10.7285 14.3728 10.34 14.4578 9.9393C14.555 9.5386 14.64 9.14398 14.7128 8.75543C14.7857 8.35473 14.8646 7.97225 14.9496 7.60798C15.0467 7.23157 15.1682 6.87945 15.3139 6.55161C15.4839 6.52732 15.6599 6.55161 15.8421 6.62446C16.0363 6.68517 16.1638 6.7641 16.2245 6.86124C16.6009 6.56982 16.9349 6.2177 17.2263 5.80486C17.5177 5.39202 17.8091 4.99133 18.1005 4.60278C18.4041 4.20208 18.7441 3.84996 19.1205 3.5464C19.4969 3.24284 19.9643 3.06071 20.5229 3C20.8143 3.20642 21.1421 3.43105 21.5064 3.67389C21.8707 3.9046 22.1682 4.19601 22.3989 4.54814C22.496 4.60885 22.5871 4.67563 22.6721 4.74848C22.7692 4.80919 22.8663 4.86991 22.9635 4.93062V5.20382C23.1335 5.36167 23.2731 5.54987 23.3824 5.76843C23.5038 5.97485 23.607 6.19948 23.692 6.44233C23.7892 6.67303 23.8802 6.9098 23.9652 7.15265C24.0502 7.39549 24.1474 7.62013 24.2566 7.82654C24.2323 7.8994 24.2202 7.96618 24.2202 8.02689C24.2323 8.07546 24.2445 8.1301 24.2566 8.19081C24.2809 8.23938 24.2991 8.30009 24.3113 8.37295C24.3234 8.43366 24.3295 8.51258 24.3295 8.60972C24.2809 9.25326 24.0684 9.77538 23.692 10.1761C23.3278 10.5646 22.8785 10.8864 22.3442 11.1414C21.8221 11.3842 21.2636 11.5967 20.6686 11.7788C20.0736 11.9488 19.5333 12.137 19.0476 12.3435C19.0476 12.392 19.0719 12.4163 19.1205 12.4163C19.1812 12.4163 19.1994 12.4527 19.1751 12.5256C19.5394 12.7442 19.8186 12.9202 20.0129 13.0538C20.2193 13.1873 20.4075 13.3027 20.5775 13.3998C20.7597 13.4848 20.9539 13.5577 21.1604 13.6184C21.3789 13.6791 21.6764 13.752 22.0528 13.837C22.4292 13.922 22.7206 13.9948 22.9271 14.0555C23.1456 14.1041 23.3399 14.1466 23.5099 14.183C23.6799 14.2073 23.862 14.2316 24.0563 14.2559C24.2506 14.2801 24.5116 14.3105 24.8395 14.3469C24.973 14.4805 25.0823 14.6383 25.1673 14.8205C25.2523 15.0026 25.313 15.1847 25.3494 15.3669C25.3859 15.549 25.3919 15.7251 25.3676 15.8951C25.3555 16.0529 25.3069 16.1804 25.2219 16.2776C25.2341 16.3261 25.2644 16.3504 25.313 16.3504C25.3737 16.3383 25.4344 16.3383 25.4951 16.3504C25.4101 16.4111 25.3373 16.484 25.2766 16.569C25.2159 16.654 25.1552 16.739 25.0944 16.824C25.0337 16.9089 24.9609 16.9879 24.8759 17.0607C24.803 17.1336 24.7059 17.1761 24.5845 17.1882C24.1474 17.3582 23.5888 17.3643 22.9088 17.2064C22.2289 17.0486 21.3607 16.7693 20.3043 16.3686C19.7822 16.1743 19.3572 15.9983 19.0294 15.8404C18.7016 15.6826 18.4162 15.5308 18.1734 15.3851C17.9305 15.2272 17.7059 15.0633 17.4995 14.8933C17.2931 14.7112 17.0563 14.4987 16.7892 14.2559C16.7527 14.268 16.7284 14.2923 16.7163 14.3287C16.7163 14.3651 16.6981 14.3894 16.6617 14.4016C16.6009 14.8873 16.5038 15.2819 16.3702 15.5854C16.2488 15.889 16.0667 16.1986 15.8238 16.5143C15.6296 16.4779 15.496 16.4961 15.4231 16.569C15.3624 16.6418 15.2835 16.7086 15.1864 16.7693C15.065 16.7936 14.9739 16.7875 14.9132 16.7511C14.8525 16.7268 14.7978 16.6965 14.7493 16.66C14.7007 16.6236 14.646 16.5872 14.5853 16.5508C14.5246 16.5143 14.4275 16.5022 14.2939 16.5143C14.2575 16.405 14.2211 16.3018 14.1846 16.2047C14.1482 16.0954 14.0511 16.0468 13.8932 16.059C13.9297 15.9497 13.9418 15.8586 13.9296 15.7858C13.9175 15.7008 13.8993 15.6279 13.875 15.5672C13.8507 15.4944 13.8264 15.4215 13.8022 15.3487C13.79 15.2758 13.8022 15.1908 13.8386 15.0937ZM19.9219 6.77017C19.764 7.00087 19.5879 7.21336 19.3937 7.40764C19.1994 7.58977 19.0051 7.78405 18.8108 7.99046C18.6287 8.18474 18.4648 8.4033 18.3191 8.64615C18.1734 8.87685 18.0702 9.15612 18.0094 9.48396C18.5194 9.42325 19.0537 9.28361 19.6122 9.06505C20.1708 8.83435 20.699 8.61579 21.1968 8.40937C21.1361 7.96011 20.9782 7.60191 20.7232 7.33478C20.4683 7.05551 20.2011 6.86731 19.9219 6.77017Z" fill="white"/>
<path d="M2.40069 6.38774C2.38855 6.2906 2.36427 6.2056 2.32784 6.13275C2.30356 6.04775 2.2732 5.95668 2.23677 5.85955C2.17606 5.71384 2.12142 5.55599 2.07285 5.386C2.02428 5.21601 2 5.01566 2 4.78496C2.02428 4.66354 2.05464 4.57854 2.09107 4.52997C2.12749 4.46926 2.16392 4.42069 2.20035 4.38426L2.2732 4.05642H2.5464C2.64354 4.06857 2.74068 4.07464 2.83782 4.07464C2.9471 4.07464 3.0503 4.07464 3.14744 4.07464C3.60885 4.07464 4.0824 4.05642 4.56809 4.02C5.05378 3.98357 5.55161 3.94107 6.06158 3.8925C6.62013 3.81965 7.22117 3.76501 7.86471 3.72858C7.92542 3.59502 7.96184 3.51002 7.97399 3.47359C7.99827 3.43717 8.02256 3.39467 8.04684 3.3461L8.24719 3.23682C8.52646 3.22468 8.72074 3.26111 8.83002 3.3461C8.9393 3.41895 9.02429 3.49181 9.085 3.56466C9.4007 3.54038 9.72247 3.51002 10.0503 3.47359C10.3782 3.42503 10.7181 3.37646 11.0703 3.32789C11.556 3.26718 12.0477 3.20647 12.5455 3.14575C13.0434 3.08504 13.5291 3.05469 14.0026 3.05469C14.209 3.05469 14.4033 3.06076 14.5854 3.0729C14.7676 3.08504 14.9436 3.10326 15.1136 3.12754L15.3322 3.29146C15.3808 3.37646 15.4415 3.45538 15.5143 3.52824C15.5872 3.60109 15.6722 3.67394 15.7693 3.7468C15.9514 3.8925 16.1275 4.07464 16.2975 4.2932C16.4796 4.51176 16.5464 4.83353 16.4978 5.25851L16.4068 5.44064C16.3582 5.48921 16.2975 5.53778 16.2246 5.58635L16.0425 5.82312H15.8422C15.7207 5.82312 15.6297 5.83526 15.569 5.85955C15.5083 5.87169 15.4354 5.89597 15.3504 5.9324C15.3018 5.95669 15.2472 5.98097 15.1865 6.00525C15.1258 6.0174 15.059 6.03561 14.9861 6.05989C14.8526 6.04775 14.7494 6.04168 14.6765 6.04168C14.6037 6.04168 14.5187 6.04168 14.4215 6.04168C14.0573 6.04168 13.6626 6.06597 13.2377 6.11453C12.8127 6.1631 12.3998 6.21774 11.9991 6.27845C11.7077 6.31488 11.4285 6.35131 11.1613 6.38774C10.8942 6.41202 10.6514 6.4363 10.4328 6.46059C10.3114 6.77629 10.2021 7.05556 10.105 7.2984C10.0078 7.54125 9.9046 7.78409 9.79532 8.02694C9.68604 8.26978 9.58283 8.5187 9.4857 8.77369C9.38856 9.01653 9.29749 9.28973 9.2125 9.59329C9.06679 9.81185 8.94537 10.0243 8.84823 10.2308C8.75109 10.425 8.67217 10.6497 8.61146 10.9047C8.42932 11.1111 8.29576 11.3357 8.21076 11.5785C8.13791 11.8214 8.07112 12.0278 8.01041 12.1978L7.93756 12.471C7.85256 12.556 7.79792 12.6228 7.77364 12.6713C7.7615 12.7199 7.73114 12.7746 7.68257 12.8353C7.64615 12.9931 7.59758 13.1449 7.53687 13.2906C7.51258 13.3513 7.4883 13.4181 7.46401 13.491C7.43973 13.5517 7.43366 13.6002 7.4458 13.6367C7.42151 13.7702 7.38509 13.8734 7.33652 13.9463C7.33652 14.0191 7.33045 14.092 7.31831 14.1648C7.30616 14.2377 7.29402 14.3106 7.28188 14.3834C7.25759 14.4684 7.23938 14.5473 7.22724 14.6202C7.2151 14.6809 7.22117 14.7416 7.24545 14.8023C7.28188 14.8509 7.31831 14.8995 7.35473 14.948C7.39116 14.9966 7.42151 15.0573 7.4458 15.1302C7.47008 15.1544 7.50044 15.1727 7.53687 15.1848C7.57329 15.1969 7.60365 15.2152 7.62793 15.2394C7.72507 15.3244 7.81614 15.373 7.90113 15.3851L8.08327 15.6037C8.15612 16.0408 8.08934 16.3808 7.88292 16.6237C7.66436 16.9029 7.30009 17.0426 6.79012 17.0426L6.53513 17.0243C6.45013 16.9393 6.40157 16.8847 6.38942 16.8604C6.28014 16.8119 6.18908 16.7694 6.11622 16.7329C6.04337 16.7086 5.97659 16.654 5.91588 16.569C5.89159 16.5447 5.86124 16.5326 5.82481 16.5326C5.78838 16.5204 5.75803 16.5022 5.73374 16.4779C5.61232 16.4415 5.51518 16.399 5.44233 16.3505L5.24198 16.2412C5.25412 16.1197 5.26019 16.0348 5.26019 15.9862C5.16306 15.8526 5.08413 15.7069 5.02342 15.5491C4.97485 15.3912 4.93235 15.2273 4.89593 15.0573C4.8595 14.9237 4.82307 14.8023 4.78665 14.693C4.76236 14.5838 4.71986 14.4866 4.65915 14.4016C4.63487 13.5517 4.71379 12.8413 4.89593 12.2707C5.07806 11.6878 5.27841 11.1232 5.49697 10.5768C5.61839 10.2854 5.73374 9.98791 5.84302 9.68435C5.9523 9.3808 6.04944 9.07117 6.13444 8.75547L6.33478 8.55513C6.41978 8.48227 6.47442 8.43977 6.4987 8.42763C6.4987 8.26978 6.52906 8.11801 6.58977 7.9723C6.65048 7.81445 6.71726 7.6566 6.79012 7.49875C6.83869 7.40161 6.88118 7.30447 6.91761 7.20734C6.96618 7.1102 6.99654 7.0252 7.00868 6.95235C6.92368 6.95235 6.84476 6.95842 6.7719 6.97056C6.71119 6.97056 6.64441 6.97663 6.57156 6.98878C6.41371 7.0252 6.26193 7.04342 6.11622 7.04342C6.00694 7.04342 5.92802 7.03735 5.87945 7.0252C5.78231 7.07377 5.69124 7.10413 5.60625 7.11627C5.52125 7.11627 5.43626 7.11627 5.35126 7.11627H5.1327H4.91414C4.76843 7.11627 4.65308 7.13448 4.56809 7.17091C4.39809 7.17091 4.28881 7.17091 4.24025 7.17091C4.19168 7.17091 4.13704 7.17091 4.07632 7.17091H3.85776H3.6392C3.54207 7.17091 3.43279 7.16484 3.31136 7.1527C3.18994 7.12841 3.06245 7.07984 2.92888 7.00699L2.80139 6.86128C2.72853 6.72772 2.66175 6.65486 2.60104 6.64272L2.40069 6.58808V6.38774Z" fill="white"/>
</svg>
