<svg width="56" height="56" viewBox="0 0 56 56" fill="none" xmlns="http://www.w3.org/2000/svg">
<path d="M11.6673 27.9999C11.6673 28.9229 11.3936 29.8251 10.8808 30.5926C10.3681 31.36 9.63923 31.9581 8.78651 32.3114C7.93379 32.6646 6.99548 32.757 6.09023 32.5769C5.18499 32.3969 4.35347 31.9524 3.70082 31.2998C3.04818 30.6471 2.60372 29.8156 2.42366 28.9103C2.24359 28.0051 2.33601 27.0668 2.68922 26.2141C3.04242 25.3613 3.64056 24.6325 4.40799 24.1197C5.17542 23.6069 6.07767 23.3333 7.00065 23.3333C8.23833 23.3333 9.42532 23.8249 10.3005 24.7001C11.1757 25.5753 11.6673 26.7622 11.6673 27.9999ZM28.0007 23.3333C27.0777 23.3333 26.1754 23.6069 25.408 24.1197C24.6406 24.6325 24.0424 25.3613 23.6892 26.2141C23.336 27.0668 23.2436 28.0051 23.4237 28.9103C23.6037 29.8156 24.0482 30.6471 24.7008 31.2998C25.3535 31.9524 26.185 32.3969 27.0902 32.5769C27.9955 32.757 28.9338 32.6646 29.7865 32.3114C30.6392 31.9581 31.3681 31.36 31.8808 30.5926C32.3936 29.8251 32.6673 28.9229 32.6673 27.9999C32.6673 26.7622 32.1757 25.5753 31.3005 24.7001C30.4253 23.8249 29.2383 23.3333 28.0007 23.3333ZM49.0007 23.3333C48.0777 23.3333 47.1754 23.6069 46.408 24.1197C45.6406 24.6325 45.0424 25.3613 44.6892 26.2141C44.336 27.0668 44.2436 28.0051 44.4237 28.9103C44.6037 29.8156 45.0482 30.6471 45.7008 31.2998C46.3535 31.9524 47.185 32.3969 48.0902 32.5769C48.9955 32.757 49.9338 32.6646 50.7865 32.3114C51.6392 31.9581 52.3681 31.36 52.8808 30.5926C53.3936 29.8251 53.6673 28.9229 53.6673 27.9999C53.6673 26.7622 53.1757 25.5753 52.3005 24.7001C51.4253 23.8249 50.2383 23.3333 49.0007 23.3333Z" fill="#6F6661"/>
</svg>
